<?xml version="1.0" ?><svg id="Layer_1" style="enable-background:new 0 0 512 512;" version="1.1" viewBox="0 0 512 512" xml:space="preserve" xmlns="http://www.w3.org/2000/svg" xmlns:xlink="http://www.w3.org/1999/xlink"><style type="text/css">
	.st0{fill:none;stroke:url(#SVGID_1_);stroke-width:15;stroke-linecap:round;stroke-linejoin:round;stroke-miterlimit:10;}
	.st1{fill:none;stroke:url(#SVGID_2_);stroke-width:15;stroke-linecap:round;stroke-linejoin:round;stroke-miterlimit:10;}
	.st2{fill:none;stroke:url(#SVGID_3_);stroke-width:11;stroke-linecap:round;stroke-linejoin:round;stroke-miterlimit:10;}
	.st3{fill:none;stroke:url(#SVGID_4_);stroke-width:25;stroke-linecap:round;stroke-linejoin:round;stroke-miterlimit:10;}
	.st4{fill:none;stroke:url(#SVGID_5_);stroke-width:35;stroke-linecap:round;stroke-linejoin:round;stroke-miterlimit:10;}
	.st5{fill:none;stroke:#3262AC;stroke-linecap:round;stroke-linejoin:round;stroke-miterlimit:10;}
	.st6{fill:url(#SVGID_6_);}
	.st7{fill:url(#SVGID_7_);}
	.st8{fill:url(#SVGID_8_);}
	.st9{fill:url(#SVGID_9_);}
	.st10{fill:url(#SVGID_10_);}
	.st11{fill:#353B90;}
	.st12{fill:#3252A0;}
	.st13{fill:#2A2F6D;}
	.st14{fill:#416CB3;}
	.st15{fill:#375EA9;}
	.st16{fill:#2D2E7F;}
	.st17{fill:#262856;}
	.st18{fill:#2B3180;}
	.st19{fill:#323B90;}
	.st20{fill:url(#SVGID_11_);}
	.st21{fill:#395EA9;}
	.st22{fill:#C3C7E6;}
	.st23{fill:#283488;}
	.st24{fill:#334496;}
	.st25{fill:#282E67;}
	.st26{fill:url(#SVGID_12_);}
	.st27{fill:url(#SVGID_13_);}
	.st28{clip-path:url(#SVGID_15_);fill:url(#SVGID_16_);}
	.st29{clip-path:url(#SVGID_15_);fill:url(#SVGID_17_);}
	.st30{clip-path:url(#SVGID_15_);fill:url(#SVGID_18_);}
	.st31{clip-path:url(#SVGID_20_);fill:url(#SVGID_21_);}
	.st32{clip-path:url(#SVGID_20_);fill:url(#SVGID_22_);}
	.st33{opacity:0.11;fill:url(#SVGID_23_);}
	.st34{opacity:0.15;fill:url(#SVGID_24_);}
	.st35{opacity:0.25;fill:url(#SVGID_25_);}
	.st36{fill:none;stroke:#9CD5DF;stroke-width:0.5;stroke-linecap:round;stroke-linejoin:round;stroke-miterlimit:10;}
	.st37{fill:#4D6BB2;}
	.st38{fill:#2E2B7C;}
	.st39{fill:#354093;}
	.st40{fill:#93BEE6;}
	.st41{fill:#7EB3E1;}
	.st42{fill:none;stroke:#8DB1DE;stroke-miterlimit:10;}
	.st43{fill:#658FCA;}
	.st44{fill:#4676BA;}
	.st45{fill:url(#SVGID_26_);}
	.st46{fill:url(#SVGID_27_);}
	.st47{fill:url(#SVGID_28_);}
	.st48{opacity:0.11;fill:url(#SVGID_29_);}
	.st49{opacity:0.15;fill:url(#SVGID_30_);}
	.st50{opacity:0.25;fill:url(#SVGID_31_);}
	.st51{opacity:0.11;fill:url(#SVGID_32_);}
	.st52{opacity:0.15;fill:url(#SVGID_33_);}
	.st53{opacity:0.25;fill:url(#SVGID_34_);}
	.st54{opacity:0.11;fill:url(#SVGID_35_);}
	.st55{opacity:0.15;fill:url(#SVGID_36_);}
	.st56{opacity:0.25;fill:url(#SVGID_37_);}
	.st57{fill:none;stroke:#9CD5DF;stroke-linecap:round;stroke-linejoin:round;stroke-miterlimit:10;}
	.st58{fill:url(#SVGID_38_);}
	.st59{fill:url(#SVGID_39_);}
	.st60{fill:#464193;}
	.st61{fill:url(#SVGID_40_);}
</style><g><g><linearGradient gradientUnits="userSpaceOnUse" id="SVGID_1_" x1="7.4292" x2="247.1319" y1="442.1969" y2="442.1969"><stop offset="0.1" style="stop-color:#3262AC;stop-opacity:0"/><stop offset="0.6172" style="stop-color:#3262AC;stop-opacity:0.2"/><stop offset="0.9" style="stop-color:#3262AC;stop-opacity:0"/></linearGradient><line class="st0" x1="14.9" x2="239.6" y1="378.4" y2="506"/><linearGradient gradientUnits="userSpaceOnUse" id="SVGID_2_" x1="105.2719" x2="500.3298" y1="395.0908" y2="395.0908"><stop offset="0.1" style="stop-color:#3262AC;stop-opacity:0"/><stop offset="0.6172" style="stop-color:#3262AC;stop-opacity:0.2"/><stop offset="0.9" style="stop-color:#3262AC;stop-opacity:0"/></linearGradient><line class="st1" x1="112.8" x2="492.8" y1="287.2" y2="503"/><linearGradient gradientUnits="userSpaceOnUse" id="SVGID_3_" x1="230.3475" x2="499.1752" y1="357.4543" y2="357.4543"><stop offset="0.1" style="stop-color:#3262AC;stop-opacity:0"/><stop offset="0.6172" style="stop-color:#3262AC;stop-opacity:0.2"/><stop offset="0.9" style="stop-color:#3262AC;stop-opacity:0"/></linearGradient><line class="st2" x1="235.8" x2="493.7" y1="284.2" y2="430.7"/><linearGradient gradientUnits="userSpaceOnUse" id="SVGID_4_" x1="244.5357" x2="509.5708" y1="296.6244" y2="296.6244"><stop offset="0.1" style="stop-color:#3262AC;stop-opacity:0"/><stop offset="0.6172" style="stop-color:#3262AC;stop-opacity:0.2"/><stop offset="0.9" style="stop-color:#3262AC;stop-opacity:0"/></linearGradient><line class="st3" x1="257" x2="497.1" y1="228.5" y2="364.8"/><linearGradient gradientUnits="userSpaceOnUse" id="SVGID_5_" x1="35.9478" x2="365.8538" y1="405.8894" y2="405.8894"><stop offset="0.1" style="stop-color:#3262AC;stop-opacity:0"/><stop offset="0.6172" style="stop-color:#3262AC;stop-opacity:0.2"/><stop offset="0.9" style="stop-color:#3262AC;stop-opacity:0"/></linearGradient><line class="st4" x1="53.4" x2="348.4" y1="322.2" y2="489.6"/></g><g><polygon class="st5" points="66.9,340.5 150.3,292.4 233.6,340.5 150.3,388.7   "/><linearGradient gradientUnits="userSpaceOnUse" id="SVGID_6_" x1="132.2417" x2="168.2923" y1="371.7671" y2="309.3257"><stop offset="0" style="stop-color:#3262AC;stop-opacity:0.2"/><stop offset="1" style="stop-color:#3262AC"/></linearGradient><polygon class="st6" points="222.4,340.5 150.3,298.9 78.2,340.5 150.3,382.2   "/><linearGradient gradientUnits="userSpaceOnUse" id="SVGID_7_" x1="148.725" x2="178.5843" y1="481.7702" y2="430.0523"><stop offset="0" style="stop-color:#3262AC;stop-opacity:0.2"/><stop offset="1" style="stop-color:#3262AC"/></linearGradient><path class="st7" d="M146.8,416.9l-50.8,29.3c-2,1.2-2,4,0,5.2l75.1,43.4c2.7,1.6,6.1,1.6,8.9,0l51.2-29.1c2-1.1,2-4,0-5.2    l-75.5-43.6C153,415.3,149.6,415.3,146.8,416.9z"/><path class="st5" d="M85.2,446l61.3-35.4c3-1.7,6.7-1.7,9.6,0l86.1,49.7c2.2,1.3,2.2,4.4,0,5.6L180.3,501c-3,1.7-6.6,1.7-9.6,0    l-85.6-49.4C83,450.3,83,447.2,85.2,446z"/><linearGradient gradientUnits="userSpaceOnUse" id="SVGID_8_" x1="266.292" x2="321.5893" y1="438.0676" y2="342.2899"><stop offset="0" style="stop-color:#3262AC;stop-opacity:0.2"/><stop offset="1" style="stop-color:#3262AC"/></linearGradient><path class="st8" d="M310,336.3l-110,63.5l76.8,43.6c1.8,1,3.9,1,5.7,0l102.8-59.3c1.9-1.1,1.9-3.9,0-5L310,336.3z"/><path class="st5" d="M188.7,399.9l121.3-70l86.5,49.1c2,1.1,2,4.1,0,5.2l-112.8,65.1c-2.4,1.4-5.4,1.4-7.9,0L188.7,399.9z"/><polygon class="st5" points="333.7,322.4 395.8,286.6 457.9,322.4 395.8,358.2   "/><linearGradient gradientUnits="userSpaceOnUse" id="SVGID_9_" x1="383.1005" x2="408.5175" y1="344.4219" y2="300.3985"><stop offset="0" style="stop-color:#3262AC;stop-opacity:0.2"/><stop offset="1" style="stop-color:#3262AC"/></linearGradient><polygon class="st9" points="446.6,322.4 395.8,293.1 345,322.4 395.8,351.8   "/><linearGradient gradientUnits="userSpaceOnUse" id="SVGID_10_" x1="362.4133" x2="392.5209" y1="462.021" y2="409.8731"><stop offset="0" style="stop-color:#3262AC;stop-opacity:0.2"/><stop offset="1" style="stop-color:#3262AC"/></linearGradient><path class="st10" d="M419.7,425.6l-24.6-14c-1.6-0.9-3.5-0.9-5.1,0l-54.7,31.6c-1.2,0.7-1.2,2.5,0,3.2l24.6,14    c1.6,0.9,3.5,0.9,5.1,0l54.7-31.6C420.9,428,420.9,426.3,419.7,425.6z"/><path class="st5" d="M323.6,443.4l65.1-37.6c2.4-1.4,5.2-1.4,7.6,0l35.1,19.9c1.1,0.6,1.1,2.2,0,2.8l-65.1,37.6    c-2.3,1.4-5.2,1.4-7.6,0l-35.1-19.9C322.5,445.6,322.5,444,323.6,443.4z"/><line class="st5" x1="221.4" x2="195.6" y1="418.4" y2="433.3"/><line class="st5" x1="360.6" x2="342.7" y1="338.1" y2="348.4"/><line class="st5" x1="347.3" x2="372.4" y1="412.7" y2="427.2"/><line class="st5" x1="186.7" x2="212.2" y1="367.9" y2="382.6"/></g><g><polygon class="st11" points="150.3,362.3 222.4,320.6 222.4,139.8 150.3,181.4   "/><polygon class="st12" points="222.4,139.8 150.3,98.2 78.2,139.8 150.3,181.4   "/><g><g><polygon class="st13" points="195.8,139.8 104.7,135.7 104.7,139.8 150.3,166.1     "/></g><polygon class="st11" points="195.8,139.8 195.8,135.7 150.3,162 150.3,166.1    "/><polygon class="st14" points="195.8,135.7 150.3,109.4 104.7,135.7 150.3,162    "/><g><polygon class="st15" points="126,130.2 124.8,130.8 158.7,150.4 159.8,149.7     "/><polygon class="st15" points="150.7,155 151.9,154.3 118.1,134.8 116.9,135.4     "/><polygon class="st15" points="122,132.5 120.9,133.1 154.7,152.7 155.9,152     "/><polygon class="st15" points="130,127.9 128.8,128.6 162.6,148.1 163.8,147.4     "/><polygon class="st15" points="149.8,116.4 148.6,117.1 182.5,136.6 183.6,136     "/><polygon class="st15" points="141.9,121 140.7,121.7 174.5,141.2 175.7,140.6     "/><polygon class="st15" points="133.9,125.6 132.8,126.3 166.6,145.8 167.8,145.1     "/><polygon class="st15" points="145.8,118.7 144.7,119.4 178.5,138.9 179.7,138.3     "/><polygon class="st15" points="137.9,123.3 136.7,124 170.6,143.5 171.7,142.9     "/></g></g><g><g><polygon class="st16" points="79.7,319.8 79.7,142.4 148.8,182.3 148.8,359.7     "/><path class="st13" d="M81.2,145l66.1,38.2v173.9l-66.1-38.2V145 M78.2,139.8v180.8l72.1,41.6V181.4L78.2,139.8L78.2,139.8z"/></g><g><g><g><g><g><path class="st13" d="M141.5,208.5v7.3l-5.6-3.2v-7.3L141.5,208.5z M124.3,198.6L87,177.1v7.3l37.4,21.6V198.6z           M127.3,200.3v7.3l5.6,3.3v-7.3L127.3,200.3z"/></g></g><g><path class="st17" d="M141.5,215v0.9l-5.6-3.2v-7.3l0.8,0.5v6.4L141.5,215z M87.8,183.9v-6.4l-0.8-0.5v7.3l37.4,21.6v-0.9         L87.8,183.9z M128.1,207.2v-6.4l-0.8-0.5v7.3l5.6,3.3V210L128.1,207.2z"/></g></g><g><g><path class="st18" d="M138.1,210c0.4,0.9,1.3,1.6,2,1.6c0.7,0,0.9-0.7,0.5-1.6c-0.4-0.9-1.3-1.6-2-1.6         C137.9,208.3,137.7,209.1,138.1,210z"/></g><g><path class="st17" d="M140.6,211.4c-0.7,0-1.6-0.7-2-1.6c-0.3-0.6-0.2-1.1,0-1.4c-0.6,0.1-0.8,0.8-0.4,1.6         c0.4,0.9,1.3,1.6,2,1.6C140.3,211.6,140.5,211.5,140.6,211.4C140.6,211.4,140.6,211.4,140.6,211.4z"/></g></g></g></g><g><g><g><g><g><path class="st13" d="M141.5,223.7v7.3l-5.6-3.2v-7.3L141.5,223.7z M124.3,213.8L87,192.3v7.3l37.4,21.6V213.8z           M127.3,215.5v7.3l5.6,3.3v-7.3L127.3,215.5z"/></g></g><g><path class="st17" d="M141.5,230.1v0.9l-5.6-3.2v-7.3l0.8,0.5v6.4L141.5,230.1z M87.8,199.1v-6.4l-0.8-0.5v7.3l37.4,21.6         v-0.9L87.8,199.1z M128.1,222.4V216l-0.8-0.5v7.3l5.6,3.3v-0.9L128.1,222.4z"/></g></g><g><g><path class="st18" d="M138.1,225.2c0.4,0.9,1.3,1.6,2,1.6c0.7,0,0.9-0.7,0.5-1.6c-0.4-0.9-1.3-1.6-2-1.6         C137.9,223.5,137.7,224.3,138.1,225.2z"/></g><g><path class="st17" d="M140.6,226.6c-0.7,0-1.6-0.7-2-1.6c-0.3-0.6-0.2-1.1,0-1.4c-0.6,0.1-0.8,0.8-0.4,1.6         c0.4,0.9,1.3,1.6,2,1.6C140.3,226.8,140.5,226.7,140.6,226.6C140.6,226.6,140.6,226.6,140.6,226.6z"/></g></g></g></g><g><g><g><g><g><path class="st13" d="M141.5,238.9v7.3l-5.6-3.2v-7.3L141.5,238.9z M124.3,229L87,207.4v7.3l37.4,21.6V229z M127.3,230.7          v7.3l5.6,3.3V234L127.3,230.7z"/></g></g><g><path class="st17" d="M141.5,245.3v0.9l-5.6-3.2v-7.3l0.8,0.5v6.4L141.5,245.3z M87.8,214.3v-6.4l-0.8-0.5v7.3l37.4,21.6         v-0.9L87.8,214.3z M128.1,237.6v-6.4l-0.8-0.5v7.3l5.6,3.3v-0.9L128.1,237.6z"/></g></g><g><g><path class="st18" d="M138.1,240.4c0.4,0.9,1.3,1.6,2,1.6c0.7,0,0.9-0.7,0.5-1.6c-0.4-0.9-1.3-1.6-2-1.6         C137.9,238.7,137.7,239.5,138.1,240.4z"/></g><g><path class="st17" d="M140.6,241.8c-0.7,0-1.6-0.7-2-1.6c-0.3-0.6-0.2-1.1,0-1.4c-0.6,0.1-0.8,0.8-0.4,1.6         c0.4,0.9,1.3,1.6,2,1.6C140.3,242,140.5,241.9,140.6,241.8C140.6,241.7,140.6,241.8,140.6,241.8z"/></g></g></g></g><g><g><g><g><g><path class="st13" d="M141.5,254.1v7.3l-5.6-3.2v-7.3L141.5,254.1z M124.3,244.2L87,222.6v7.3l37.4,21.6V244.2z           M127.3,245.9v7.3l5.6,3.3v-7.3L127.3,245.9z"/></g></g><g><path class="st17" d="M141.5,260.5v0.9l-5.6-3.2v-7.3l0.8,0.5v6.4L141.5,260.5z M87.8,229.5v-6.4l-0.8-0.5v7.3l37.4,21.6         v-0.9L87.8,229.5z M128.1,252.8v-6.4l-0.8-0.5v7.3l5.6,3.3v-0.9L128.1,252.8z"/></g></g><g><g><path class="st18" d="M138.1,255.6c0.4,0.9,1.3,1.6,2,1.6c0.7,0,0.9-0.7,0.5-1.6c-0.4-0.9-1.3-1.6-2-1.6         C137.9,253.9,137.7,254.7,138.1,255.6z"/></g><g><path class="st17" d="M140.6,257c-0.7,0-1.6-0.7-2-1.6c-0.3-0.6-0.2-1.1,0-1.4c-0.6,0.1-0.8,0.8-0.4,1.6         c0.4,0.9,1.3,1.6,2,1.6C140.3,257.2,140.5,257.1,140.6,257C140.6,256.9,140.6,257,140.6,257z"/></g></g></g></g><g><g><g><g><g><path class="st13" d="M141.5,269.3v7.3l-5.6-3.2v-7.3L141.5,269.3z M124.3,259.4L87,237.8v7.3l37.4,21.6V259.4z           M127.3,261.1v7.3l5.6,3.3v-7.3L127.3,261.1z"/></g></g><g><path class="st17" d="M141.5,275.7v0.9l-5.6-3.2v-7.3l0.8,0.5v6.4L141.5,275.7z M87.8,244.7v-6.4l-0.8-0.5v7.3l37.4,21.6         v-0.9L87.8,244.7z M128.1,268v-6.4l-0.8-0.5v7.3l5.6,3.3v-0.9L128.1,268z"/></g></g><g><g><path class="st18" d="M138.1,270.8c0.4,0.9,1.3,1.6,2,1.6c0.7,0,0.9-0.7,0.5-1.6c-0.4-0.9-1.3-1.6-2-1.6         C137.9,269.1,137.7,269.8,138.1,270.8z"/></g><g><path class="st17" d="M140.6,272.1c-0.7,0-1.6-0.7-2-1.6c-0.3-0.6-0.2-1.1,0-1.4c-0.6,0.1-0.8,0.8-0.4,1.6         c0.4,0.9,1.3,1.6,2,1.6C140.3,272.4,140.5,272.3,140.6,272.1C140.6,272.1,140.6,272.1,140.6,272.1z"/></g></g></g></g><g><g><g><g><g><path class="st13" d="M141.5,284.5v7.3l-5.6-3.2v-7.3L141.5,284.5z M124.3,274.6L87,253v7.3l37.4,21.6V274.6z M127.3,276.3          v7.3l5.6,3.3v-7.3L127.3,276.3z"/></g></g><g><path class="st17" d="M141.5,290.9v0.9l-5.6-3.2v-7.3l0.8,0.5v6.4L141.5,290.9z M87.8,259.9v-6.4L87,253v7.3l37.4,21.6V281         L87.8,259.9z M128.1,283.2v-6.4l-0.8-0.5v7.3l5.6,3.3V286L128.1,283.2z"/></g></g><g><g><path class="st18" d="M138.1,285.9c0.4,0.9,1.3,1.6,2,1.6c0.7,0,0.9-0.7,0.5-1.6c-0.4-0.9-1.3-1.6-2-1.6         C137.9,284.3,137.7,285,138.1,285.9z"/></g><g><path class="st17" d="M140.6,287.3c-0.7,0-1.6-0.7-2-1.6c-0.3-0.6-0.2-1.1,0-1.4c-0.6,0.1-0.8,0.8-0.4,1.6         c0.4,0.9,1.3,1.6,2,1.6C140.3,287.6,140.5,287.5,140.6,287.3C140.6,287.3,140.6,287.3,140.6,287.3z"/></g></g></g></g><g><g><g><g><g><path class="st13" d="M141.5,299.7v7.3l-5.6-3.2v-7.3L141.5,299.7z M124.3,289.8L87,268.2v7.3l37.4,21.6V289.8z           M127.3,291.5v7.3l5.6,3.3v-7.3L127.3,291.5z"/></g></g><g><path class="st17" d="M141.5,306.1v0.9l-5.6-3.2v-7.3l0.8,0.5v6.4L141.5,306.1z M87.8,275.1v-6.4l-0.8-0.5v7.3l37.4,21.6         v-0.9L87.8,275.1z M128.1,298.4V292l-0.8-0.5v7.3l5.6,3.3v-0.9L128.1,298.4z"/></g></g><g><g><path class="st18" d="M138.1,301.1c0.4,0.9,1.3,1.6,2,1.6c0.7,0,0.9-0.7,0.5-1.6c-0.4-0.9-1.3-1.6-2-1.6         C137.9,299.5,137.7,300.2,138.1,301.1z"/></g><g><path class="st17" d="M140.6,302.5c-0.7,0-1.6-0.7-2-1.6c-0.3-0.6-0.2-1.1,0-1.4c-0.6,0.1-0.8,0.8-0.4,1.6         c0.4,0.9,1.3,1.6,2,1.6C140.3,302.8,140.5,302.7,140.6,302.5C140.6,302.5,140.6,302.5,140.6,302.5z"/></g></g></g></g><g><g><polygon class="st19" points="90.5,312.9 87,310.9 87,281.9 90.5,284      "/></g><g><polygon class="st19" points="97.8,317.1 94.2,315 94.2,286.1 97.8,288.1      "/></g><g><polygon class="st19" points="105.1,321.2 101.5,319.2 101.5,290.2 105.1,292.3      "/></g><g><polygon class="st19" points="112.4,325.4 108.8,323.3 108.8,294.4 112.4,296.4      "/></g><g><polygon class="st19" points="119.6,329.6 116.1,327.5 116.1,298.5 119.6,300.6      "/></g><g><polygon class="st19" points="126.9,333.7 123.4,331.7 123.4,302.7 126.9,304.7      "/></g><g><polygon class="st19" points="134.2,337.9 130.6,335.8 130.6,306.9 134.2,308.9      "/></g><g><polygon class="st19" points="141.5,342 137.9,340 137.9,311 141.5,313.1      "/></g></g><g><g><polygon class="st19" points="126.9,193.9 126.9,178.6 123.4,176.6 123.4,191.8      "/></g><g><polygon class="st19" points="119.6,189.7 119.6,174.5 116.1,172.4 116.1,187.6      "/></g><g><polygon class="st19" points="141.5,202.3 141.5,187 137.9,184.9 137.9,200.2      "/></g><g><polygon class="st19" points="134.2,198.1 134.2,182.8 130.6,180.7 130.6,196      "/></g><g><polygon class="st19" points="90.5,172.9 90.5,157.9 87,155.8 87,170.8      "/></g><g><polygon class="st19" points="112.4,185.5 112.4,170.3 108.8,168.3 108.8,183.4      "/></g><g><polygon class="st19" points="97.8,177.1 97.8,162 94.2,160 94.2,175      "/></g><g><polygon class="st19" points="105.1,181.3 105.1,166.2 101.5,164.1 101.5,179.2      "/></g></g></g><linearGradient gradientUnits="userSpaceOnUse" id="SVGID_11_" x1="156.191" x2="216.4439" y1="251.0353" y2="251.0353"><stop offset="0" style="stop-color:#4456A3"/><stop offset="1" style="stop-color:#4456A3;stop-opacity:0.2"/></linearGradient><path class="st20" d="M165.4,193v7.3l-5.6,3.2v-7.3L165.4,193z M177,193.5l37.4-21.6v-7.3L177,186.3V193.5z M168.4,191.2v7.3    l5.6-3.3V188L168.4,191.2z M165.4,204.3v7.3l-5.6,3.2v-7.3L165.4,204.3z M177,204.9l37.4-21.6v-7.3L177,197.6V204.9z M168.4,202.6    v7.3l5.6-3.3v-7.3L168.4,202.6z M165.4,215.7v7.3l-5.6,3.2v-7.3L165.4,215.7z M177,216.3l37.4-21.6v-7.3L177,209V216.3z     M168.4,214v7.3l5.6-3.3v-7.3L168.4,214z M156.2,234.5v-43.4l0.3-0.2l60-34.6v43.4l-0.3,0.2L156.2,234.5z M157.3,191.8v40.9    l58.1-33.5v-40.9L157.3,191.8z M165.4,248.5v7.3l-5.6,3.2v-7.3L165.4,248.5z M177,249.1l37.4-21.6v-7.3L177,241.9V249.1z     M168.4,246.8v7.3l5.6-3.3v-7.3L168.4,246.8z M165.4,259.9v7.3l-5.6,3.2v-7.3L165.4,259.9z M177,260.5l37.4-21.6v-7.3L177,253.2    V260.5z M168.4,258.2v7.3l5.6-3.3v-7.3L168.4,258.2z M165.4,271.3v7.3l-5.6,3.2v-7.3L165.4,271.3z M177,271.9l37.4-21.6V243    L177,264.6V271.9z M168.4,269.6v7.3l5.6-3.3v-7.3L168.4,269.6z M156.2,290.1v-43.4l0.3-0.2l60-34.6v43.4l-0.3,0.2L156.2,290.1z     M157.3,247.3v40.9l58.1-33.5v-40.9L157.3,247.3z M165.4,304.1v7.3l-5.6,3.2v-7.3L165.4,304.1z M177,304.7l37.4-21.6v-7.3    L177,297.5V304.7z M168.4,302.4v7.3l5.6-3.3v-7.3L168.4,302.4z M165.4,315.5v7.3l-5.6,3.2v-7.3L165.4,315.5z M177,316.1l37.4-21.6    v-7.3L177,308.8V316.1z M168.4,313.8v7.3l5.6-3.3v-7.3L168.4,313.8z M165.4,326.9v7.3l-5.6,3.2v-7.3L165.4,326.9z M177,327.5    l37.4-21.6v-7.3L177,320.2V327.5z M168.4,325.2v7.3l5.6-3.3v-7.3L168.4,325.2z M156.2,345.7v-43.4l0.3-0.2l60-34.6v43.4l-0.3,0.2    L156.2,345.7z M157.3,302.9v40.9l58.1-33.5v-40.9L157.3,302.9z"/></g><g><g><g><polygon class="st13" points="395.8,324.6 345,295.2 345,302.4 395.8,331.7     "/></g><g><polygon class="st12" points="349,295.2 395.8,268.2 442.6,295.2 395.8,322.3     "/><path class="st21" d="M395.8,270.5l42.8,24.7l-42.8,24.7L353,295.2L395.8,270.5 M395.8,265.9L345,295.2l50.8,29.3l50.8-29.3      L395.8,265.9L395.8,265.9z"/></g><polygon class="st11" points="446.6,302.4 446.6,295.2 395.8,324.6 395.8,331.7    "/></g><polygon class="st22" points="432.8,294 395.8,272.6 358.8,294 395.8,315.4   "/><polygon class="st22" points="446.6,186 395.8,156.7 345,186 395.8,215.4   "/><g><g><polygon class="st13" points="395.8,215.4 345,186 345,193.2 395.8,222.5     "/></g><polygon class="st11" points="446.6,193.2 446.6,186 395.8,215.4 395.8,222.5    "/><g><polygon class="st12" points="349,186 395.8,159 442.6,186 395.8,213.1     "/><path class="st21" d="M395.8,161.3l42.8,24.7l-42.8,24.7L353,186L395.8,161.3 M395.8,156.7L345,186l50.8,29.3l50.8-29.3      L395.8,156.7L395.8,156.7z"/></g><g><g><polygon class="st21" points="416.5,181.3 417.5,181.9 388.6,198.6 387.6,198      "/></g><g><polygon class="st21" points="395.4,202.5 394.4,201.9 423.3,185.2 424.3,185.8      "/></g><g><polygon class="st21" points="419.9,183.3 420.9,183.8 392,200.5 391,200      "/></g><g><polygon class="st21" points="413.2,179.4 414.1,179.9 385.2,196.6 384.3,196      "/></g><g><polygon class="st21" points="396.2,169.6 397.2,170.1 368.3,186.8 367.3,186.3      "/></g><g><polygon class="st21" points="403,173.5 404,174.1 375.1,190.7 374.1,190.2      "/></g><g><polygon class="st21" points="409.8,177.4 410.7,178 381.8,194.7 380.9,194.1      "/></g><g><polygon class="st21" points="399.6,171.5 400.6,172.1 371.7,188.8 370.7,188.2      "/></g><g><polygon class="st21" points="406.4,175.5 407.4,176 378.5,192.7 377.5,192.1      "/></g></g></g><g><g><polygon class="st23" points="395.8,315.4 358.8,294 358.8,201.2 395.8,222.5     "/></g><polygon class="st24" points="395.8,315.4 432.8,294 432.8,201.2 395.8,222.5    "/><g><g><polygon class="st23" points="404.1,220.7 400.4,222.8 400.4,224.9 404.1,222.8      "/></g><g><polygon class="st23" points="404.1,227 400.4,229.1 400.4,231.2 404.1,229.1      "/></g><g><polygon class="st23" points="405.2,220 405.2,222.1 425.6,210.4 425.6,208.3      "/></g><g><polygon class="st23" points="405.2,238.9 405.2,241.1 425.6,229.3 425.6,227.2      "/></g><g><polygon class="st23" points="405.2,232.6 405.2,234.7 425.6,223 425.6,220.9      "/></g><g><polygon class="st23" points="405.2,226.3 405.2,228.4 425.6,216.7 425.6,214.6      "/></g><g><polygon class="st23" points="404.1,252.2 400.4,254.3 400.4,256.4 404.1,254.3      "/></g><g><polygon class="st23" points="404.1,245.9 400.4,248 400.4,250.1 404.1,248      "/></g><g><polygon class="st23" points="404.1,239.6 400.4,241.7 400.4,243.8 404.1,241.7      "/></g><g><polygon class="st23" points="404.1,233.3 400.4,235.4 400.4,237.5 404.1,235.4      "/></g><g><polygon class="st23" points="405.2,283.1 405.2,285.2 425.6,273.4 425.6,271.3      "/></g><g><polygon class="st23" points="405.2,289.4 405.2,291.5 425.6,279.8 425.6,277.7      "/></g><g><polygon class="st23" points="404.1,258.5 400.4,260.6 400.4,262.7 404.1,260.6      "/></g><g><polygon class="st23" points="405.2,276.8 405.2,278.9 425.6,267.1 425.6,265      "/></g><g><polygon class="st23" points="405.2,295.7 405.2,297.8 425.6,286.1 425.6,284      "/></g><g><polygon class="st23" points="425.6,292.4 425.6,290.3 405.2,302 405.2,304.1      "/></g><g><polygon class="st23" points="405.2,251.6 405.2,253.7 425.6,241.9 425.6,239.8      "/></g><g><polygon class="st23" points="405.2,245.3 405.2,247.4 425.6,235.6 425.6,233.5      "/></g><g><polygon class="st23" points="405.2,270.5 405.2,272.6 425.6,260.8 425.6,258.7      "/></g><g><polygon class="st23" points="405.2,257.9 405.2,260 425.6,248.2 425.6,246.1      "/></g><g><polygon class="st23" points="405.2,264.2 405.2,266.3 425.6,254.5 425.6,252.4      "/></g><g><polygon class="st23" points="426.7,228.6 429.6,226.9 429.6,224.8 426.7,226.5      "/></g><g><polygon class="st23" points="426.7,253.9 429.6,252.2 429.6,250.1 426.7,251.8      "/></g><g><polygon class="st23" points="426.7,241.3 429.6,239.5 429.6,237.4 426.7,239.1      "/></g><g><polygon class="st23" points="426.7,247.6 429.6,245.9 429.6,243.8 426.7,245.5      "/></g><g><polygon class="st23" points="426.7,266.5 429.6,264.8 429.6,262.7 426.7,264.4      "/></g><g><polygon class="st23" points="426.7,260.2 429.6,258.5 429.6,256.4 426.7,258.1      "/></g><g><polygon class="st23" points="426.7,272.8 429.6,271.1 429.6,269 426.7,270.7      "/></g><g><polygon class="st23" points="426.7,234.9 429.6,233.2 429.6,231.1 426.7,232.8      "/></g><g><polygon class="st23" points="426.7,207.6 426.7,209.7 429.6,208 429.6,205.9      "/></g><g><polygon class="st23" points="426.7,216 429.6,214.3 429.6,212.2 426.7,213.9      "/></g><g><polygon class="st23" points="426.7,222.3 429.6,220.6 429.6,218.5 426.7,220.2      "/></g><g><polygon class="st23" points="404.1,290.1 400.4,292.2 400.4,294.3 404.1,292.2      "/></g><g><polygon class="st23" points="404.1,277.5 400.4,279.5 400.4,281.6 404.1,279.6      "/></g><g><polygon class="st23" points="404.1,264.8 400.4,266.9 400.4,269 404.1,266.9      "/></g><g><polygon class="st23" points="404.1,283.8 400.4,285.8 400.4,288 404.1,285.9      "/></g><g><polygon class="st23" points="404.1,271.1 400.4,273.2 400.4,275.3 404.1,273.2      "/></g><g><polygon class="st23" points="404.1,302.7 400.4,304.8 400.4,306.9 404.1,304.8      "/></g><g><polygon class="st23" points="426.7,285.4 429.6,283.7 429.6,281.6 426.7,283.3      "/></g><g><polygon class="st23" points="404.1,296.4 400.4,298.5 400.4,300.6 404.1,298.5      "/></g><g><polygon class="st23" points="426.7,291.7 429.6,290 429.6,287.9 426.7,289.6      "/></g><g><polygon class="st23" points="426.7,279.1 429.6,277.4 429.6,275.3 426.7,277      "/></g></g><g><g><polygon class="st25" points="384.6,275.8 384.6,277.9 387.3,279.5 387.3,277.4      "/></g><g><polygon class="st25" points="384.6,269.5 384.6,271.6 387.3,273.2 387.3,271.1      "/></g><g><polygon class="st25" points="384.6,263.2 384.6,265.3 387.3,266.9 387.3,264.8      "/></g><g><polygon class="st25" points="384.6,282.1 384.6,284.2 387.3,285.8 387.3,283.7      "/></g><g><polygon class="st25" points="384.6,294.7 384.6,296.9 387.3,298.4 387.3,296.3      "/></g><g><polygon class="st25" points="384.6,288.4 384.6,290.5 387.3,292.1 387.3,290      "/></g><g><polygon class="st25" points="384.6,244.3 384.6,246.4 387.3,248 387.3,245.8      "/></g><g><polygon class="st25" points="384.6,231.7 384.6,233.8 387.3,235.3 387.3,233.2      "/></g><g><polygon class="st25" points="384.6,225.3 384.6,227.5 387.3,229 387.3,226.9      "/></g><g><polygon class="st25" points="384.6,238 384.6,240.1 387.3,241.6 387.3,239.5      "/></g><g><polygon class="st25" points="384.6,256.9 384.6,259 387.3,260.6 387.3,258.5      "/></g><g><polygon class="st25" points="387.3,302.6 384.6,301.1 384.6,303.2 387.3,304.7      "/></g><g><polygon class="st25" points="384.6,250.6 384.6,252.7 387.3,254.3 387.3,252.2      "/></g><g><polygon class="st25" points="383.4,283.6 383.4,281.5 380.7,279.9 380.7,282      "/></g><g><polygon class="st25" points="383.4,258.4 383.4,256.2 380.7,254.7 380.7,256.8      "/></g><g><polygon class="st25" points="383.4,233.1 383.4,231 380.7,229.4 380.7,231.5      "/></g><g><polygon class="st25" points="383.4,252 383.4,249.9 380.7,248.4 380.7,250.5      "/></g><g><polygon class="st25" points="383.4,239.4 383.4,237.3 380.7,235.7 380.7,237.9      "/></g><g><polygon class="st25" points="380.7,216.8 380.7,218.9 383.4,220.5 383.4,218.4      "/></g><g><polygon class="st25" points="383.4,226.8 383.4,224.7 380.7,223.1 380.7,225.2      "/></g><g><polygon class="st25" points="383.4,271 383.4,268.9 380.7,267.3 380.7,269.4      "/></g><g><polygon class="st25" points="383.4,289.9 383.4,287.8 380.7,286.2 380.7,288.3      "/></g><g><polygon class="st25" points="383.4,296.2 383.4,294.1 380.7,292.5 380.7,294.6      "/></g><g><polygon class="st25" points="384.6,219 384.6,221.1 387.3,222.7 387.3,220.6      "/></g><g><polygon class="st25" points="383.4,277.3 383.4,275.2 380.7,273.6 380.7,275.7      "/></g><g><polygon class="st25" points="383.4,264.7 383.4,262.6 380.7,261 380.7,263.1      "/></g><g><polygon class="st25" points="383.4,302.5 383.4,300.4 380.7,298.8 380.7,300.9      "/></g><g><polygon class="st25" points="383.4,245.7 383.4,243.6 380.7,242.1 380.7,244.2      "/></g><g><polygon class="st25" points="388.4,280.1 391,281.6 391,279.5 388.4,278      "/></g><g><polygon class="st25" points="388.4,261.2 391,262.7 391,260.6 388.4,259.1      "/></g><g><polygon class="st25" points="379.6,216.2 361.8,205.9 361.8,208 379.6,218.3      "/></g><g><polygon class="st25" points="388.4,273.8 391,275.3 391,273.2 388.4,271.7      "/></g><g><polygon class="st25" points="388.4,299.1 391,300.6 391,298.5 388.4,297      "/></g><g><polygon class="st25" points="388.4,305.4 391,306.9 391,304.8 388.4,303.3      "/></g><g><polygon class="st25" points="388.4,286.5 391,288 391,285.8 388.4,284.3      "/></g><g><polygon class="st25" points="388.4,292.8 391,294.3 391,292.2 388.4,290.7      "/></g><g><polygon class="st25" points="388.4,229.7 391,231.2 391,229.1 388.4,227.6      "/></g><g><polygon class="st25" points="388.4,254.9 391,256.4 391,254.3 388.4,252.8      "/></g><g><polygon class="st25" points="388.4,221.3 388.4,223.4 391,224.9 391,222.8      "/></g><g><polygon class="st25" points="388.4,236 391,237.5 391,235.4 388.4,233.9      "/></g><g><polygon class="st25" points="388.4,248.6 391,250.1 391,248 388.4,246.5      "/></g><g><polygon class="st25" points="388.4,242.3 391,243.8 391,241.7 388.4,240.2      "/></g><g><polygon class="st25" points="388.4,267.5 391,269 391,266.9 388.4,265.4      "/></g><g><polygon class="st25" points="379.6,235.1 361.8,224.8 361.8,226.9 379.6,237.2      "/></g><g><polygon class="st25" points="379.6,241.4 361.8,231.1 361.8,233.2 379.6,243.5      "/></g><g><polygon class="st25" points="379.6,247.7 361.8,237.4 361.8,239.5 379.6,249.8      "/></g><g><polygon class="st25" points="379.6,228.8 361.8,218.5 361.8,220.6 379.6,230.9      "/></g><g><polygon class="st25" points="379.6,254 361.8,243.8 361.8,245.9 379.6,256.1      "/></g><g><polygon class="st25" points="379.6,222.5 361.8,212.2 361.8,214.3 379.6,224.6      "/></g><g><polygon class="st25" points="379.6,266.6 361.8,256.4 361.8,258.5 379.6,268.8      "/></g><g><polygon class="st25" points="379.6,260.3 361.8,250.1 361.8,252.2 379.6,262.4      "/></g><g><polygon class="st25" points="379.6,285.6 361.8,275.3 361.8,277.4 379.6,287.7      "/></g><g><polygon class="st25" points="379.6,291.9 361.8,281.6 361.8,283.7 379.6,294      "/></g><g><polygon class="st25" points="379.6,279.3 361.8,269 361.8,271.1 379.6,281.4      "/></g><g><polygon class="st25" points="379.6,298.2 361.8,287.9 361.8,290 379.6,300.3      "/></g><g><polygon class="st25" points="379.6,273 361.8,262.7 361.8,264.8 379.6,275.1      "/></g></g></g><g><linearGradient gradientUnits="userSpaceOnUse" id="SVGID_12_" x1="370.3921" x2="370.3921" y1="324.5623" y2="193.1809"><stop offset="0" style="stop-color:#3A57A4;stop-opacity:0.4"/><stop offset="1" style="stop-color:#FFFFFF;stop-opacity:0"/></linearGradient><polygon class="st26" points="395.8,222.5 395.8,324.6 345,295.2 345,193.2    "/><linearGradient gradientUnits="userSpaceOnUse" id="SVGID_13_" x1="421.226" x2="421.226" y1="324.5623" y2="193.1809"><stop offset="0" style="stop-color:#3A57A4;stop-opacity:0.5"/><stop offset="1" style="stop-color:#FFFFFF;stop-opacity:0"/></linearGradient><polygon class="st27" points="395.8,222.5 395.8,324.6 446.6,295.2 446.6,193.2    "/><g><defs><polygon id="SVGID_14_" points="395.8,222.5 395.8,324.6 446.6,295.2 446.6,193.2      "/></defs><clipPath id="SVGID_15_"><use style="overflow:visible;" xlink:href="#SVGID_14_"/></clipPath><linearGradient gradientUnits="userSpaceOnUse" id="SVGID_16_" x1="407.358" x2="407.358" y1="190.2671" y2="331.7007"><stop offset="0" style="stop-color:#6FC7DA;stop-opacity:0.3"/><stop offset="1" style="stop-color:#FFFFFF;stop-opacity:0"/></linearGradient><rect class="st28" height="141.4" width="10.3" x="402.2" y="190.3"/><linearGradient gradientUnits="userSpaceOnUse" id="SVGID_17_" x1="420.9052" x2="420.9052" y1="185.4152" y2="326.8488"><stop offset="0" style="stop-color:#6FC7DA;stop-opacity:0.3"/><stop offset="1" style="stop-color:#FFFFFF;stop-opacity:0"/></linearGradient><rect class="st29" height="141.4" width="4" x="418.9" y="185.4"/><linearGradient gradientUnits="userSpaceOnUse" id="SVGID_18_" x1="432.8272" x2="432.8272" y1="181.7055" y2="323.1391"><stop offset="0" style="stop-color:#6FC7DA;stop-opacity:0.3"/><stop offset="1" style="stop-color:#FFFFFF;stop-opacity:0"/></linearGradient><rect class="st30" height="141.4" width="9.4" x="428.1" y="181.7"/></g><g><defs><polygon id="SVGID_19_" points="395.8,222.5 395.8,324.6 345,295.2 345,193.2      "/></defs><clipPath id="SVGID_20_"><use style="overflow:visible;" xlink:href="#SVGID_19_"/></clipPath><linearGradient gradientUnits="userSpaceOnUse" id="SVGID_21_" x1="370.3921" x2="370.3921" y1="190.2671" y2="331.7007"><stop offset="0" style="stop-color:#6FC7DA;stop-opacity:0.3"/><stop offset="1" style="stop-color:#FFFFFF;stop-opacity:0"/></linearGradient><rect class="st31" height="141.4" width="10" x="365.4" y="190.3"/><linearGradient gradientUnits="userSpaceOnUse" id="SVGID_22_" x1="387.6471" x2="387.6471" y1="192.4859" y2="333.9195"><stop offset="0" style="stop-color:#6FC7DA;stop-opacity:0.3"/><stop offset="1" style="stop-color:#FFFFFF;stop-opacity:0"/></linearGradient><rect class="st32" height="141.4" width="5.6" x="384.8" y="192.5"/></g></g><g><linearGradient gradientUnits="userSpaceOnUse" id="SVGID_23_" x1="388.2677" x2="403.3503" y1="194.8895" y2="168.7656"><stop offset="0" style="stop-color:#53C3F1"/><stop offset="0.3804" style="stop-color:#76CBEA"/><stop offset="1" style="stop-color:#9CD5DF"/></linearGradient><path class="st33" d="M406.4,171.3c-9.2-2.5-21.4,0.3-27.2,6.1c-5.8,5.8-3.1,12.5,6.1,15c9.2,2.5,21.4-0.3,27.2-6.1     C418.3,180.5,415.5,173.7,406.4,171.3z"/><linearGradient gradientUnits="userSpaceOnUse" id="SVGID_24_" x1="390.741" x2="400.877" y1="190.6056" y2="173.0495"><stop offset="0" style="stop-color:#53C3F1"/><stop offset="0.3804" style="stop-color:#76CBEA"/><stop offset="1" style="stop-color:#9CD5DF"/></linearGradient><path class="st34" d="M402.9,174.7c-6.2-1.7-14.4,0.2-18.3,4.1c-3.9,3.9-2.1,8.4,4.1,10.1c6.2,1.7,14.4-0.2,18.3-4.1     C410.9,180.9,409.1,176.4,402.9,174.7z"/><linearGradient gradientUnits="userSpaceOnUse" id="SVGID_25_" x1="392.6333" x2="398.9847" y1="187.328" y2="176.3271"><stop offset="0" style="stop-color:#53C3F1"/><stop offset="0.3804" style="stop-color:#76CBEA"/><stop offset="1" style="stop-color:#9CD5DF"/></linearGradient><path class="st35" d="M400.2,177.4c-3.9-1-9,0.1-11.4,2.6c-2.5,2.5-1.3,5.3,2.6,6.3s9-0.1,11.4-2.6     C405.3,181.3,404.1,178.4,400.2,177.4z"/><path class="st36" d="M397.7,179.9c-1.7-0.4-3.9,0-4.9,1.1c-1.1,1.1-0.6,2.3,1.1,2.7c1.7,0.4,3.9,0,4.9-1.1     C399.9,181.6,399.4,180.4,397.7,179.9z"/></g></g><g><path class="st37" d="M197.4,300v82.2l2.6,1.4l107.4-64.9l1.4-82.3c0,0-1.8-1-2.4-1.3c-0.6-0.4-1.5-0.5-2.2,0l-103.9,60    C198.5,296.1,197.4,298,197.4,300z"/><path class="st38" d="M200,301.5v82.2l110-63.5v-81.8c0-1.6-1.8-2.7-3.2-1.8l-103.9,60C201.1,297.5,200,299.4,200,301.5z"/><polygon class="st39" points="205.4,300.1 205.4,375.2 306.8,316.8 306.8,241.7   "/><path class="st37" d="M310,323.3l-110,60.3v3.2l76.8,43.6c1.8,1,3.9,1,5.7,0l102.8-59.3c1-0.5,1.4-1.5,1.4-2.5c0-1,0-3.2,0-3.2    L310,323.3z"/><path class="st40" d="M310,320.2l-110,63.5l76.8,43.6c1.8,1,3.9,1,5.7,0l102.8-59.3c1.9-1.1,1.9-3.9,0-5L310,320.2z"/><g><polygon class="st41" points="349.3,353.4 307.8,329.8 216.9,382.3 258.4,405.9    "/><g><polygon class="st11" points="312.8,334.3 308.2,331.7 221.6,381.7 226.1,384.3     "/><polygon class="st11" points="319.1,337.9 314.6,335.3 228,385.3 232.5,387.9     "/><polygon class="st11" points="325.5,341.6 321,339 234.3,389 238.9,391.6     "/><polygon class="st11" points="331.9,345.2 327.3,342.6 240.7,392.6 245.3,395.2     "/><polygon class="st11" points="338.2,348.8 333.7,346.2 247.1,396.2 251.6,398.8     "/><polygon class="st11" points="344.6,352.4 340.1,349.9 253.5,399.9 258,402.5     "/></g><g><line class="st42" x1="228" x2="239.9" y1="377.5" y2="384.3"/><line class="st42" x1="233.5" x2="239.4" y1="374.4" y2="377.7"/><line class="st42" x1="244.1" x2="250.1" y1="382.6" y2="386"/><line class="st42" x1="254" x2="260" y1="384.3" y2="387.7"/><line class="st42" x1="257" x2="263" y1="389.4" y2="392.8"/><line class="st42" x1="261.2" x2="267.2" y1="395.2" y2="398.6"/><line class="st42" x1="265.7" x2="271.6" y1="391.6" y2="394.9"/><line class="st42" x1="304.7" x2="310.6" y1="369.9" y2="373.2"/><line class="st42" x1="309.8" x2="315.7" y1="366.7" y2="370"/><line class="st42" x1="314.9" x2="320.8" y1="363.5" y2="366.9"/><line class="st42" x1="320" x2="326" y1="360.3" y2="363.7"/><line class="st42" x1="335.3" x2="341.2" y1="351.8" y2="355.2"/><line class="st42" x1="271.4" x2="277.3" y1="388.6" y2="391.9"/><line class="st42" x1="238.3" x2="244.3" y1="371.5" y2="374.9"/><line class="st42" x1="243.2" x2="249.2" y1="368.7" y2="372.1"/><line class="st42" x1="248.1" x2="254" y1="365.9" y2="369.3"/><line class="st42" x1="253" x2="258.9" y1="363.1" y2="366.5"/><line class="st42" x1="257.8" x2="263.8" y1="360.3" y2="363.7"/><line class="st42" x1="262.7" x2="268.7" y1="357.5" y2="360.8"/><line class="st42" x1="267.6" x2="273.5" y1="354.6" y2="358"/><line class="st42" x1="272.4" x2="278.4" y1="351.8" y2="355.2"/><line class="st42" x1="277.3" x2="283.3" y1="349" y2="352.4"/><line class="st42" x1="282.2" x2="288.1" y1="346.2" y2="349.6"/><line class="st42" x1="287.1" x2="293" y1="343.4" y2="346.7"/><line class="st42" x1="291.9" x2="297.9" y1="340.5" y2="343.9"/><line class="st42" x1="296.8" x2="302.8" y1="337.7" y2="341.1"/><line class="st42" x1="301.7" x2="307.6" y1="334.9" y2="338.3"/></g></g><g><path class="st43" d="M309,382.2L279.9,399c-0.5,0.3-0.5,1.1,0,1.4l16.1,9.1c0.7,0.4,1.6,0.4,2.4,0l29.1-16.8     c0.5-0.3,0.5-1.1,0-1.4l-16.1-9.1C310.6,381.8,309.7,381.8,309,382.2z"/><path class="st44" d="M279.9,399.5l29.1-16.8c0.7-0.4,1.6-0.4,2.4,0l16.1,9.1c0.2,0.1,0.3,0.2,0.3,0.4c0.1-0.3,0-0.8-0.3-1     l-16.1-9.1c-0.7-0.4-1.6-0.4-2.4,0L279.9,399c-0.4,0.2-0.5,0.6-0.3,1C279.7,399.8,279.8,399.6,279.9,399.5z"/></g><g><linearGradient gradientUnits="userSpaceOnUse" id="SVGID_26_" x1="243.409" x2="275.5265" y1="302.0333" y2="302.0333"><stop offset="0" style="stop-color:#4456A3"/><stop offset="1" style="stop-color:#4456A3;stop-opacity:0.2"/></linearGradient><path class="st45" d="M243.4,309.6v-6.4l32.1-18.4v6.4L243.4,309.6z M244,303.5v5.1l31-17.8v-5.1L244,303.5z M243.4,319.3v-6.4     l32.1-18.4v6.4L243.4,319.3z M244,313.2v5.1l31-17.8v-5.1L244,313.2z"/><linearGradient gradientUnits="userSpaceOnUse" id="SVGID_27_" x1="245.7709" x2="262.9882" y1="310.0223" y2="310.0223"><stop offset="0" style="stop-color:#4456A3"/><stop offset="1" style="stop-color:#4456A3;stop-opacity:0.2"/></linearGradient><path class="st46" d="M248,314.2c-0.3,0.6-1.1,1-1.6,1c-0.6,0-0.8-0.5-0.4-1c0.3-0.6,1.1-1,1.6-1     C248.1,313.1,248.3,313.6,248,314.2z M251.3,311.1c-0.6,0-1.3,0.5-1.6,1c-0.3,0.6-0.1,1,0.4,1c0.6,0,1.3-0.5,1.6-1     C252,311.5,251.9,311.1,251.3,311.1z M255,309c-0.6,0-1.3,0.5-1.6,1c-0.3,0.6-0.1,1,0.4,1c0.6,0,1.3-0.5,1.6-1     C255.8,309.4,255.6,309,255,309z M258.7,306.9c-0.6,0-1.3,0.5-1.6,1c-0.3,0.6-0.1,1,0.4,1c0.6,0,1.3-0.5,1.6-1     C259.5,307.4,259.3,306.9,258.7,306.9z M262.4,304.8c-0.6,0-1.3,0.5-1.6,1c-0.3,0.6-0.1,1,0.4,1c0.6,0,1.3-0.5,1.6-1     C263.2,305.3,263,304.8,262.4,304.8z"/><linearGradient gradientUnits="userSpaceOnUse" id="SVGID_28_" x1="259.9882" x2="263.9645" y1="314.6332" y2="314.6332"><stop offset="0" style="stop-color:#4456A3"/><stop offset="1" style="stop-color:#4456A3;stop-opacity:0.2"/></linearGradient><polygon class="st47" points="262.3,313.2 262.2,313.7 262.9,313.9 260,315.6 260.3,316.1 263.1,314.5 262.8,315.2 263.3,315.4      264,313.6    "/></g><g><linearGradient gradientUnits="userSpaceOnUse" id="SVGID_29_" x1="295.3742" x2="303.6048" y1="402.7657" y2="388.51"><stop offset="0" style="stop-color:#53C3F1"/><stop offset="0.3804" style="stop-color:#76CBEA"/><stop offset="1" style="stop-color:#9CD5DF"/></linearGradient><path class="st48" d="M305.2,389.9c-5-1.3-11.7,0.1-14.8,3.3c-3.2,3.2-1.7,6.8,3.3,8.2c5,1.3,11.7-0.1,14.8-3.3     C311.7,394.9,310.3,391.2,305.2,389.9z"/><linearGradient gradientUnits="userSpaceOnUse" id="SVGID_30_" x1="296.7239" x2="302.2551" y1="400.428" y2="390.8477"><stop offset="0" style="stop-color:#53C3F1"/><stop offset="0.3804" style="stop-color:#76CBEA"/><stop offset="1" style="stop-color:#9CD5DF"/></linearGradient><path class="st49" d="M303.4,391.8c-3.4-0.9-7.8,0.1-10,2.2c-2.1,2.1-1.1,4.6,2.2,5.5c3.4,0.9,7.8-0.1,10-2.2     C307.7,395.1,306.7,392.7,303.4,391.8z"/><linearGradient gradientUnits="userSpaceOnUse" id="SVGID_31_" x1="297.7565" x2="301.2224" y1="398.6394" y2="392.6363"><stop offset="0" style="stop-color:#53C3F1"/><stop offset="0.3804" style="stop-color:#76CBEA"/><stop offset="1" style="stop-color:#9CD5DF"/></linearGradient><path class="st50" d="M301.9,393.2c-2.1-0.6-4.9,0.1-6.2,1.4c-1.3,1.3-0.7,2.9,1.4,3.4c2.1,0.6,4.9-0.1,6.2-1.4     C304.7,395.3,304,393.8,301.9,393.2z"/><path class="st36" d="M300.5,394.6c-0.9-0.2-2.1,0-2.7,0.6c-0.6,0.6-0.3,1.2,0.6,1.5c0.9,0.2,2.1,0,2.7-0.6     C301.7,395.5,301.4,394.8,300.5,394.6z"/></g></g><g><path class="st37" d="M146.8,403.3l-52.3,29.9c0,0,0,1,0,2.1c0,1,0.5,2,1.5,2.6l75.1,43.4c2.7,1.6,6.1,1.6,8.9,0l51.2-29.1    c1-0.6,1.5-1.5,1.5-2.5c0-1,0-2.1,0-2.1l-77-44.2C153,401.7,149.6,401.7,146.8,403.3z"/><path class="st38" d="M146.8,401.2l-50.8,29.3c-2,1.2-2,4,0,5.2l75.1,43.4c2.7,1.6,6.1,1.6,8.9,0l51.2-29.1c2-1.1,2-4,0-5.2    l-75.5-43.6C153,399.6,149.6,399.6,146.8,401.2z"/><polygon class="st39" points="152.9,405.5 103.9,433.7 172.8,473.5 222.2,445.5   "/><path class="st11" d="M205.4,459.2c-1.2-0.3-2.9,0-3.7,0.8c-0.8,0.8-0.4,1.7,0.8,2c1.2,0.3,2.9,0,3.7-0.8    C207,460.5,206.6,459.6,205.4,459.2z"/><g><linearGradient gradientUnits="userSpaceOnUse" id="SVGID_32_" x1="155.2822" x2="172.0937" y1="455.3891" y2="426.2707"><stop offset="0" style="stop-color:#53C3F1"/><stop offset="0.3804" style="stop-color:#76CBEA"/><stop offset="1" style="stop-color:#9CD5DF"/></linearGradient><path class="st51" d="M175.4,429.1c-10.2-2.7-23.8,0.3-30.3,6.8c-6.5,6.5-3.5,14,6.8,16.7c10.2,2.7,23.8-0.3,30.3-6.8     C188.7,439.3,185.7,431.8,175.4,429.1z"/><linearGradient gradientUnits="userSpaceOnUse" id="SVGID_33_" x1="158.039" x2="169.3369" y1="450.6142" y2="431.0456"><stop offset="0" style="stop-color:#53C3F1"/><stop offset="0.3804" style="stop-color:#76CBEA"/><stop offset="1" style="stop-color:#9CD5DF"/></linearGradient><path class="st52" d="M171.6,432.9c-6.9-1.8-16,0.2-20.4,4.6c-4.4,4.4-2.3,9.4,4.6,11.2c6.9,1.8,16-0.2,20.4-4.6     S178.5,434.8,171.6,432.9z"/><linearGradient gradientUnits="userSpaceOnUse" id="SVGID_34_" x1="160.1483" x2="167.2276" y1="446.9608" y2="434.699"><stop offset="0" style="stop-color:#53C3F1"/><stop offset="0.3804" style="stop-color:#76CBEA"/><stop offset="1" style="stop-color:#9CD5DF"/></linearGradient><path class="st53" d="M168.6,435.9c-4.3-1.2-10,0.1-12.8,2.9c-2.7,2.7-1.5,5.9,2.9,7c4.3,1.2,10-0.1,12.8-2.9     C174.2,440.2,172.9,437,168.6,435.9z"/><path class="st36" d="M165.8,438.7c-1.9-0.5-4.3,0.1-5.5,1.2c-1.2,1.2-0.6,2.5,1.2,3c1.9,0.5,4.3-0.1,5.5-1.2     C168.2,440.6,167.7,439.2,165.8,438.7z"/></g></g><g><path class="st37" d="M420.6,411.4l-25.6-13.9c-1.6-0.9-3.5-0.9-5.1,0l-55.6,31.7c0,0,0,0.8,0,1.3c-0.1,0.7,0.2,1.4,0.9,1.8    l24.6,14c1.6,0.9,3.5,0.9,5.1,0l54.7-31.6c0.5-0.3,0.8-0.7,0.9-1.2C420.7,412.7,420.6,411.4,420.6,411.4z"/><path class="st38" d="M419.7,409.8l-24.6-14c-1.6-0.9-3.5-0.9-5.1,0l-54.7,31.6c-1.2,0.7-1.2,2.5,0,3.2l24.6,14    c1.6,0.9,3.5,0.9,5.1,0l54.7-31.6C420.9,412.2,420.9,410.5,419.7,409.8z"/><polygon class="st39" points="416,412.6 390.3,398 339,427.7 364.6,442.3   "/><g><linearGradient gradientUnits="userSpaceOnUse" id="SVGID_35_" x1="372.6146" x2="382.3589" y1="425.4056" y2="408.5279"><stop offset="0" style="stop-color:#53C3F1"/><stop offset="0.3804" style="stop-color:#76CBEA"/><stop offset="1" style="stop-color:#9CD5DF"/></linearGradient><path class="st54" d="M384.3,410.2c-5.9-1.6-13.8,0.2-17.6,3.9c-3.8,3.8-2,8.1,3.9,9.7c5.9,1.6,13.8-0.2,17.6-3.9     C392,416.1,390.2,411.7,384.3,410.2z"/><linearGradient gradientUnits="userSpaceOnUse" id="SVGID_36_" x1="374.2466" x2="380.7269" y1="422.5788" y2="411.3547"><stop offset="0" style="stop-color:#53C3F1"/><stop offset="0.3804" style="stop-color:#76CBEA"/><stop offset="1" style="stop-color:#9CD5DF"/></linearGradient><path class="st55" d="M382,412.4c-3.9-1.1-9.2,0.1-11.7,2.6c-2.5,2.5-1.3,5.4,2.6,6.4s9.2-0.1,11.7-2.6     C387.1,416.4,386,413.5,382,412.4z"/><linearGradient gradientUnits="userSpaceOnUse" id="SVGID_37_" x1="375.7538" x2="379.2197" y1="419.9683" y2="413.9652"><stop offset="0" style="stop-color:#53C3F1"/><stop offset="0.3804" style="stop-color:#76CBEA"/><stop offset="1" style="stop-color:#9CD5DF"/></linearGradient><path class="st56" d="M379.9,414.5c-2.1-0.6-4.9,0.1-6.2,1.4c-1.3,1.3-0.7,2.9,1.4,3.4c2.1,0.6,4.9-0.1,6.2-1.4     C382.6,416.7,382,415.1,379.9,414.5z"/><path class="st36" d="M378.5,415.9c-0.9-0.2-2.1,0-2.7,0.6c-0.6,0.6-0.3,1.2,0.6,1.5c0.9,0.2,2.1,0,2.7-0.6     C379.7,416.8,379.4,416.2,378.5,415.9z"/></g></g><g><g><path class="st57" d="M163.2,120.9l127.2,73.5c5.5,3.2,8.9,9.1,8.9,15.5v185.1"/><path class="st57" d="M299.5,289.1l69.1,39.9c5.5,3.2,8.9,9.1,8.9,15.5v72.3"/><path class="st57" d="M172.5,113.6L61.8,177.5c-3.5,2-3.5,7.1,0,9.2l92.9,53.6c5.5,3.2,8.9,9.1,8.9,15.5v185.1"/><path class="st57" d="M395.8,182.1V122c0-6.4-3.4-12.3-8.9-15.5l-93.3-53.9c-4.8-2.8-10.7-2.8-15.5,0l-91.7,53"/></g></g><g><linearGradient gradientTransform="matrix(0.8782 -0.4782 -2.886710e-02 1.1543 -5352.5498 234.3102)" gradientUnits="userSpaceOnUse" id="SVGID_38_" x1="6213.8516" x2="6497.3882" y1="2504.4612" y2="2504.4612"><stop offset="0" style="stop-color:#515DA7"/><stop offset="0.1601" style="stop-color:#5561A9"/><stop offset="0.3488" style="stop-color:#626BB0"/><stop offset="0.552" style="stop-color:#777CBB"/><stop offset="0.7655" style="stop-color:#9496CA"/><stop offset="0.9849" style="stop-color:#B9B9DE"/><stop offset="1" style="stop-color:#BCBCDF"/></linearGradient><path class="st58" d="M241.8,15.9c-6.3,3.4-12.3,8.3-17.7,14.2c-6.7-23.5-28.6-31.3-55.2-16.8c-22,12-41.5,36.1-52.1,61.9    c-3.3,0-7,1-11,3.2c-14.4,7.8-26.3,27.4-26.7,43.7c0,0.4,0,0.7,0,1c-4,0.2-8.5,1.5-13.3,4.1c-18.4,10-33.7,35-34.2,55.9    c-0.5,20.9,13.9,29.7,32.3,19.7l175.7-95.6c22.2-12.1,40.6-42.3,41.3-67.5C281.4,14.5,264,3.9,241.8,15.9z"/><radialGradient cx="5572.7954" cy="79.6467" fx="5462.3389" fy="40.6811" gradientTransform="matrix(0.9997 2.499965e-02 -2.499965e-02 0.9997 -5477.1929 -137.297)" gradientUnits="userSpaceOnUse" id="SVGID_39_" r="117.1282"><stop offset="0" style="stop-color:#2E2B76"/><stop offset="1" style="stop-color:#262554"/></radialGradient><path class="st59" d="M241.8,15.9c-3.7,2-7.2,4.5-10.6,7.4l-19.1-11.7l0,0c-10.5-7.7-25.9-7.8-43.2,1.7    c-22,12-41.5,36.1-52.1,61.9c-3.3,0-7,1-11,3.2c-14.4,7.8-26.3,27.4-26.7,43.7c0,0.4,0,0.7,0,1c-4,0.2-8.5,1.5-13.3,4.1    c-18.4,10-33.7,35-34.2,55.9c-0.3,10.4,3.2,17.7,8.9,21.3l0,0l0.1,0.1c0,0,0,0,0,0l46.7,28.7L99,183.8l140.5-76.5    c22.2-12.1,40.6-42.3,41.3-67.5C281.4,14.5,264,3.9,241.8,15.9z"/><path class="st60" d="M317.4,43.1L270.1,14l0,0c-7.1-4.5-17.1-4.2-28.2,1.9c-3.7,2-7.2,4.5-10.6,7.4l-19.1-11.7l0,0    c-10.5-7.7-25.9-7.8-43.2,1.7c-22,12-41.5,36.1-52.1,61.9c-3.3,0-7,1-11,3.2c-14.4,7.8-26.3,27.4-26.7,43.7c0,0.4,0,0.7,0,1    c-4,0.2-8.5,1.5-13.3,4.1c-18.4,10-33.7,35-34.2,55.9c-0.3,10.4,3.2,17.7,8.9,21.3l0,0l0.1,0.1c0,0,0,0,0,0l46.7,28.7L99,183.8    l140.5-76.5c18-9.8,33.5-31.5,39.1-52.8L317.4,43.1z"/><linearGradient gradientTransform="matrix(0.9997 2.499965e-02 -2.499965e-02 0.9997 227.3838 5.36)" gradientUnits="userSpaceOnUse" id="SVGID_40_" x1="-143.674" x2="101.8686" y1="131.38" y2="131.38"><stop offset="0" style="stop-color:#46BAEC"/><stop offset="0.3392" style="stop-color:#3C93D0"/><stop offset="0.7925" style="stop-color:#3E5FA9"/><stop offset="1" style="stop-color:#404A9A"/></linearGradient><path class="st61" d="M288.7,44.8c-6.3,3.4-12.3,8.3-17.7,14.2c-6.7-23.5-28.6-31.3-55.2-16.8c-22,12-41.5,36.1-52.1,61.9    c-3.3,0-7,1-11,3.2c-14.4,7.8-26.3,27.4-26.7,43.7c0,0.4,0,0.7,0,1c-4,0.2-8.5,1.5-13.3,4.1c-18.4,10-33.7,35-34.2,55.9    c-0.5,20.9,13.9,29.7,32.3,19.7l175.7-95.6c22.2-12.1,40.6-42.3,41.3-67.5C328.3,43.4,310.9,32.7,288.7,44.8z"/></g></g></svg>